<svg width="51" height="46" viewBox="0 0 51 46" fill="none" xmlns="http://www.w3.org/2000/svg">
<g clip-path="url(#clip0_31_1620)">
<path d="M20.3744 45.6353V23.7418H10.9106C10.9106 20.235 11.5798 17.2969 12.9181 14.9275C14.2564 12.4633 16.7418 10.6151 20.3744 9.38298V0C17.411 0.379112 14.6388 1.2795 12.0578 2.70116C9.57235 4.02805 7.42149 5.73405 5.60522 7.81915C3.78895 9.90425 2.35507 12.3211 1.30354 15.0696C0.347611 17.8182 -0.0825576 20.7563 0.0130354 23.8839V45.6353H20.3744ZM50.9164 45.6353V23.7418H41.4527C41.4527 20.235 42.1218 17.2969 43.4601 14.9275C44.7985 12.4633 47.2837 10.6151 50.9164 9.38298V0C47.9531 0.379112 45.1807 1.2795 42.5999 2.70116C40.1143 4.02805 37.9635 5.73405 36.1473 7.81915C34.331 9.90425 32.8971 12.3211 31.8455 15.0696C30.8896 17.8182 30.4594 20.7563 30.555 23.8839V45.6353H50.9164Z" fill="white"/>
</g>
<defs>
<clipPath id="clip0_31_1620">
<rect width="51" height="46" fill="white"/>
</clipPath>
</defs>
</svg>
