<svg width="33" height="28" viewBox="0 0 33 28" fill="none" xmlns="http://www.w3.org/2000/svg">
<path d="M22.5 9.375C22.5 9.87225 22.3025 10.3493 21.9509 10.7009C21.5992 11.0525 21.1222 11.25 20.625 11.25C20.1278 11.25 19.6508 11.0525 19.2991 10.7009C18.9475 10.3493 18.75 9.87225 18.75 9.375C18.75 8.87775 18.9475 8.40075 19.2991 8.04912C19.6508 7.6975 20.1278 7.5 20.625 7.5C21.1222 7.5 21.5992 7.6975 21.9509 8.04912C22.3025 8.40075 22.5 8.87775 22.5 9.375ZM32.5 2.5V22.5V25C32.5 25.663 32.2366 26.2989 31.7677 26.7677C31.2989 27.2366 30.663 27.5 30 27.5H2.5C1.83696 27.5 1.20107 27.2366 0.732237 26.7677C0.263387 26.2989 0 25.663 0 25V20V2.5C0 1.83696 0.263387 1.20108 0.732237 0.732238C1.20107 0.263388 1.83696 0 2.5 0H30C30.663 0 31.2989 0.263388 31.7677 0.732238C32.2366 1.20108 32.5 1.83696 32.5 2.5ZM30 19.4844V2.5H2.5V16.9844L8.23438 11.25C8.70504 10.7863 9.33925 10.5262 10 10.5262C10.6608 10.5262 11.295 10.7863 11.7656 11.25L18.75 18.2344L21.9844 15C22.455 14.5363 23.0893 14.2762 23.75 14.2762C24.4107 14.2762 25.045 14.5363 25.5156 15L30 19.4844Z" fill="#87CDFF"/>
</svg>
